<?xml version="1.0" encoding="UTF-8" standalone="no"?>
<!DOCTYPE svg PUBLIC "-//W3C//DTD SVG 1.1//EN"
 "http://www.w3.org/Graphics/SVG/1.1/DTD/svg11.dtd">
<!-- Generated by graphviz version 2.40.1 (20161225.0304)
 -->
<!-- Title: G Pages: 1 -->
<svg width="514pt" height="314pt"
 viewBox="0.00 0.00 513.78 314.00" xmlns="http://www.w3.org/2000/svg" xmlns:xlink="http://www.w3.org/1999/xlink">
<g id="graph0" class="graph" transform="scale(1 1) rotate(0) translate(4 310)">
<title>G</title>
<polygon fill="#ffffff" stroke="transparent" points="-4,4 -4,-310 509.7812,-310 509.7812,4 -4,4"/>
<!-- A -->
<g id="node1" class="node">
<title>A</title>
<polygon fill="none" stroke="#000000" points="54,-117 0,-117 0,-81 54,-81 54,-117"/>
<text text-anchor="middle" x="27" y="-94.8" font-family="Times,serif" font-size="14.00" fill="#000000">A</text>
</g>
<!-- B -->
<g id="node2" class="node">
<title>B</title>
<polygon fill="none" stroke="#000000" points="179.3906,-144 125.3906,-144 125.3906,-108 179.3906,-108 179.3906,-144"/>
<text text-anchor="middle" x="152.3906" y="-121.8" font-family="Times,serif" font-size="14.00" fill="#000000">B</text>
</g>
<!-- A&#45;&gt;B -->
<g id="edge1" class="edge">
<title>A&#45;&gt;B</title>
<path fill="none" stroke="#000000" d="M54.2079,-104.8586C72.1181,-108.7152 95.7895,-113.8123 115.4018,-118.0353"/>
<polygon fill="#000000" stroke="#000000" points="114.7231,-121.4693 125.2358,-120.1528 116.1967,-114.6262 114.7231,-121.4693"/>
<text text-anchor="middle" x="89.6953" y="-119.2" font-family="Times,serif" font-size="14.00" fill="#000000">go</text>
</g>
<!-- C -->
<g id="node3" class="node">
<title>C</title>
<polygon fill="none" stroke="#000000" points="179.3906,-90 125.3906,-90 125.3906,-54 179.3906,-54 179.3906,-90"/>
<text text-anchor="middle" x="152.3906" y="-67.8" font-family="Times,serif" font-size="14.00" fill="#000000">C</text>
</g>
<!-- A&#45;&gt;C -->
<g id="edge2" class="edge">
<title>A&#45;&gt;C</title>
<path fill="none" stroke="#000000" d="M54.0904,-92.3282C59.9849,-90.9241 66.1943,-89.4812 72,-88.2 86.07,-85.095 101.5792,-81.9132 115.1907,-79.2006"/>
<polygon fill="#000000" stroke="#000000" points="116.0431,-82.5999 125.1744,-77.2268 114.6854,-75.7328 116.0431,-82.5999"/>
<text text-anchor="middle" x="89.6953" y="-92.2" font-family="Times,serif" font-size="14.00" fill="#000000">not go</text>
</g>
<!-- D -->
<g id="node4" class="node">
<title>D</title>
<polygon fill="none" stroke="#000000" points="279.8906,-198 225.8906,-198 225.8906,-162 279.8906,-162 279.8906,-198"/>
<text text-anchor="middle" x="252.8906" y="-175.8" font-family="Times,serif" font-size="14.00" fill="#000000">D</text>
</g>
<!-- B&#45;&gt;D -->
<g id="edge3" class="edge">
<title>B&#45;&gt;D</title>
<path fill="none" stroke="#000000" d="M179.5873,-140.6132C190.983,-146.7362 204.3982,-153.9444 216.6159,-160.5091"/>
<polygon fill="#000000" stroke="#000000" points="215.2066,-163.7251 225.6721,-165.3751 218.5198,-157.5588 215.2066,-163.7251"/>
<text text-anchor="middle" x="202.6406" y="-158.2" font-family="Times,serif" font-size="14.00" fill="#000000">.9</text>
</g>
<!-- E -->
<g id="node5" class="node">
<title>E</title>
<polygon fill="none" stroke="#000000" points="279.8906,-144 225.8906,-144 225.8906,-108 279.8906,-108 279.8906,-144"/>
<text text-anchor="middle" x="252.8906" y="-121.8" font-family="Times,serif" font-size="14.00" fill="#000000">E</text>
</g>
<!-- B&#45;&gt;E -->
<g id="edge4" class="edge">
<title>B&#45;&gt;E</title>
<path fill="none" stroke="#000000" d="M179.5873,-126C190.6478,-126 203.6108,-126 215.5348,-126"/>
<polygon fill="#000000" stroke="#000000" points="215.6722,-129.5001 225.6721,-126 215.6721,-122.5001 215.6722,-129.5001"/>
<text text-anchor="middle" x="202.6406" y="-130.2" font-family="Times,serif" font-size="14.00" fill="#000000">.1</text>
</g>
<!-- 10 -->
<g id="node14" class="node">
<title>10</title>
<polygon fill="none" stroke="#000000" points="279.8906,-90 225.8906,-90 225.8906,-54 279.8906,-54 279.8906,-90"/>
<text text-anchor="middle" x="252.8906" y="-67.8" font-family="Times,serif" font-size="14.00" fill="#000000">10</text>
</g>
<!-- C&#45;&gt;10 -->
<g id="edge5" class="edge">
<title>C&#45;&gt;10</title>
<path fill="none" stroke="#000000" d="M179.5873,-72C190.6478,-72 203.6108,-72 215.5348,-72"/>
<polygon fill="#000000" stroke="#000000" points="215.6722,-75.5001 225.6721,-72 215.6721,-68.5001 215.6722,-75.5001"/>
<text text-anchor="middle" x="202.6406" y="-76.2" font-family="Times,serif" font-size="14.00" fill="#000000">.5</text>
</g>
<!-- 0 -->
<g id="node15" class="node">
<title>0</title>
<polygon fill="none" stroke="#000000" points="279.8906,-36 225.8906,-36 225.8906,0 279.8906,0 279.8906,-36"/>
<text text-anchor="middle" x="252.8906" y="-13.8" font-family="Times,serif" font-size="14.00" fill="#000000">0</text>
</g>
<!-- C&#45;&gt;0 -->
<g id="edge6" class="edge">
<title>C&#45;&gt;0</title>
<path fill="none" stroke="#000000" d="M179.5873,-57.3868C190.983,-51.2638 204.3982,-44.0556 216.6159,-37.4909"/>
<polygon fill="#000000" stroke="#000000" points="218.5198,-40.4412 225.6721,-32.6249 215.2066,-34.2749 218.5198,-40.4412"/>
<text text-anchor="middle" x="202.6406" y="-51.2" font-family="Times,serif" font-size="14.00" fill="#000000">.5</text>
</g>
<!-- F -->
<g id="node6" class="node">
<title>F</title>
<polygon fill="none" stroke="#000000" points="405.2812,-252 351.2812,-252 351.2812,-216 405.2812,-216 405.2812,-252"/>
<text text-anchor="middle" x="378.2812" y="-229.8" font-family="Times,serif" font-size="14.00" fill="#000000">F</text>
</g>
<!-- D&#45;&gt;F -->
<g id="edge7" class="edge">
<title>D&#45;&gt;F</title>
<path fill="none" stroke="#000000" d="M279.9242,-192.8671C285.8223,-195.6039 292.0474,-198.439 297.8906,-201 312.0119,-207.1892 327.6698,-213.6959 341.3872,-219.2802"/>
<polygon fill="#000000" stroke="#000000" points="340.4003,-222.6566 350.9829,-223.1657 343.0276,-216.1683 340.4003,-222.6566"/>
<text text-anchor="middle" x="315.5859" y="-219.2" font-family="Times,serif" font-size="14.00" fill="#000000">go</text>
</g>
<!-- G -->
<g id="node7" class="node">
<title>G</title>
<polygon fill="none" stroke="#000000" points="405.2812,-198 351.2812,-198 351.2812,-162 405.2812,-162 405.2812,-198"/>
<text text-anchor="middle" x="378.2812" y="-175.8" font-family="Times,serif" font-size="14.00" fill="#000000">G</text>
</g>
<!-- D&#45;&gt;G -->
<g id="edge8" class="edge">
<title>D&#45;&gt;G</title>
<path fill="none" stroke="#000000" d="M280.0985,-180C297.9266,-180 321.4631,-180 341.0223,-180"/>
<polygon fill="#000000" stroke="#000000" points="341.1264,-183.5001 351.1264,-180 341.1264,-176.5001 341.1264,-183.5001"/>
<text text-anchor="middle" x="315.5859" y="-184.2" font-family="Times,serif" font-size="14.00" fill="#000000">not go</text>
</g>
<!-- 9  -->
<g id="node12" class="node">
<title>9 </title>
<polygon fill="none" stroke="#000000" points="405.2812,-144 351.2812,-144 351.2812,-108 405.2812,-108 405.2812,-144"/>
<text text-anchor="middle" x="378.2812" y="-121.8" font-family="Times,serif" font-size="14.00" fill="#000000">9 </text>
</g>
<!-- E&#45;&gt;9  -->
<g id="edge9" class="edge">
<title>E&#45;&gt;9 </title>
<path fill="none" stroke="#000000" d="M280.0985,-126C297.9266,-126 321.4631,-126 341.0223,-126"/>
<polygon fill="#000000" stroke="#000000" points="341.1264,-129.5001 351.1264,-126 341.1264,-122.5001 341.1264,-129.5001"/>
<text text-anchor="middle" x="315.5859" y="-130.2" font-family="Times,serif" font-size="14.00" fill="#000000">.5</text>
</g>
<!-- &#45;1 -->
<g id="node13" class="node">
<title>&#45;1</title>
<polygon fill="none" stroke="#000000" points="405.2812,-90 351.2812,-90 351.2812,-54 405.2812,-54 405.2812,-90"/>
<text text-anchor="middle" x="378.2812" y="-67.8" font-family="Times,serif" font-size="14.00" fill="#000000">&#45;1</text>
</g>
<!-- E&#45;&gt;&#45;1 -->
<g id="edge10" class="edge">
<title>E&#45;&gt;&#45;1</title>
<path fill="none" stroke="#000000" d="M279.9363,-113.2791C285.8336,-110.5669 292.0554,-107.7522 297.8906,-105.2 312.029,-99.0162 327.6904,-92.4787 341.4057,-86.8555"/>
<polygon fill="#000000" stroke="#000000" points="343.0628,-89.9595 350.9991,-82.9405 340.4179,-83.4784 343.0628,-89.9595"/>
<text text-anchor="middle" x="315.5859" y="-109.2" font-family="Times,serif" font-size="14.00" fill="#000000">.5</text>
</g>
<!-- 18 -->
<g id="node8" class="node">
<title>18</title>
<polygon fill="none" stroke="#000000" points="505.7812,-306 451.7812,-306 451.7812,-270 505.7812,-270 505.7812,-306"/>
<text text-anchor="middle" x="478.7812" y="-283.8" font-family="Times,serif" font-size="14.00" fill="#000000">18</text>
</g>
<!-- F&#45;&gt;18 -->
<g id="edge11" class="edge">
<title>F&#45;&gt;18</title>
<path fill="none" stroke="#000000" d="M405.4779,-248.6132C416.8736,-254.7362 430.2888,-261.9444 442.5065,-268.5091"/>
<polygon fill="#000000" stroke="#000000" points="441.0972,-271.7251 451.5627,-273.3751 444.4104,-265.5588 441.0972,-271.7251"/>
<text text-anchor="middle" x="428.5312" y="-266.2" font-family="Times,serif" font-size="14.00" fill="#000000">.9</text>
</g>
<!-- 8 -->
<g id="node9" class="node">
<title>8</title>
<polygon fill="none" stroke="#000000" points="505.7812,-252 451.7812,-252 451.7812,-216 505.7812,-216 505.7812,-252"/>
<text text-anchor="middle" x="478.7812" y="-229.8" font-family="Times,serif" font-size="14.00" fill="#000000">8</text>
</g>
<!-- F&#45;&gt;8 -->
<g id="edge12" class="edge">
<title>F&#45;&gt;8</title>
<path fill="none" stroke="#000000" d="M405.4779,-234C416.5384,-234 429.5014,-234 441.4254,-234"/>
<polygon fill="#000000" stroke="#000000" points="441.5628,-237.5001 451.5627,-234 441.5627,-230.5001 441.5628,-237.5001"/>
<text text-anchor="middle" x="428.5312" y="-238.2" font-family="Times,serif" font-size="14.00" fill="#000000">.1</text>
</g>
<!-- 19 -->
<g id="node10" class="node">
<title>19</title>
<polygon fill="none" stroke="#000000" points="505.7812,-198 451.7812,-198 451.7812,-162 505.7812,-162 505.7812,-198"/>
<text text-anchor="middle" x="478.7812" y="-175.8" font-family="Times,serif" font-size="14.00" fill="#000000">19</text>
</g>
<!-- G&#45;&gt;19 -->
<g id="edge13" class="edge">
<title>G&#45;&gt;19</title>
<path fill="none" stroke="#000000" d="M405.4779,-180C416.5384,-180 429.5014,-180 441.4254,-180"/>
<polygon fill="#000000" stroke="#000000" points="441.5628,-183.5001 451.5627,-180 441.5627,-176.5001 441.5628,-183.5001"/>
<text text-anchor="middle" x="428.5312" y="-184.2" font-family="Times,serif" font-size="14.00" fill="#000000">.5</text>
</g>
<!-- 9 -->
<g id="node11" class="node">
<title>9</title>
<polygon fill="none" stroke="#000000" points="505.7812,-144 451.7812,-144 451.7812,-108 505.7812,-108 505.7812,-144"/>
<text text-anchor="middle" x="478.7812" y="-121.8" font-family="Times,serif" font-size="14.00" fill="#000000">9</text>
</g>
<!-- G&#45;&gt;9 -->
<g id="edge14" class="edge">
<title>G&#45;&gt;9</title>
<path fill="none" stroke="#000000" d="M405.4779,-165.3868C416.8736,-159.2638 430.2888,-152.0556 442.5065,-145.4909"/>
<polygon fill="#000000" stroke="#000000" points="444.4104,-148.4412 451.5627,-140.6249 441.0972,-142.2749 444.4104,-148.4412"/>
<text text-anchor="middle" x="428.5312" y="-158.2" font-family="Times,serif" font-size="14.00" fill="#000000">.5</text>
</g>
</g>
</svg>
